<svg width="103" height="103" viewBox="0 0 103 103" fill="none" xmlns="http://www.w3.org/2000/svg">
<g filter="url(#filter0_f_389_1740)">
<rect x="18.8008" y="19" width="66" height="66" rx="16" fill="#FAD260" fill-opacity="0.48"/>
<path d="M80.0008 23.7998H24.8008V78.9998H80.0008V23.7998Z" fill="#FFDB63"/>
<path d="M37.771 65.7155H37.7633C37.6763 65.7145 37.5904 65.6964 37.5104 65.6622C37.4304 65.628 37.3579 65.5784 37.2971 65.5162C37.2363 65.4539 37.1883 65.3804 37.156 65.2996C37.1236 65.2189 37.1074 65.1325 37.1084 65.0455C37.1289 63.3051 37.3153 62.053 37.7545 60.7245C37.8095 60.5576 37.9285 60.4195 38.0854 60.3404C38.2423 60.2613 38.4242 60.2478 38.591 60.3029C38.7579 60.3579 38.896 60.4769 38.9751 60.6338C39.0542 60.7907 39.0677 60.9726 39.0127 61.1394C38.62 62.3299 38.4524 63.4659 38.4342 65.0606C38.4322 65.2351 38.3614 65.4018 38.2372 65.5244C38.1131 65.647 37.9455 65.7157 37.771 65.7155Z" fill="#534741"/>
<path d="M52.3964 62.0354H52.3877C49.5968 61.9793 47.287 61.7808 45.3263 61.4282C43.3739 61.0777 41.8239 60.5835 40.5882 59.9185C38.1868 58.6268 37.0186 56.6952 37.0186 54.0134C37.0186 52.7043 37.6964 51.4253 39.0332 50.2122C40.1226 49.2233 41.6309 48.2756 43.6442 47.3143C47.2263 45.6042 51.6929 44.2231 54.9541 43.2159C56.0197 42.8866 56.9399 42.6021 57.7116 42.3449C59.8057 41.647 61.2548 40.3065 62.0184 38.3613C62.5927 36.8985 62.5478 35.6535 62.5473 35.6412C62.5399 35.4657 62.6027 35.2944 62.7216 35.1651C62.8405 35.0358 63.006 34.9591 63.1815 34.9517C63.357 34.9444 63.5283 35.0071 63.6576 35.1261C63.7869 35.245 63.8636 35.4105 63.871 35.586C63.8735 35.648 63.9262 37.1253 63.2516 38.8457C62.8523 39.8629 62.2801 40.7593 61.5509 41.5091C60.6419 42.4444 59.4901 43.1486 58.1303 43.6021C57.345 43.864 56.4191 44.1503 55.3453 44.482C52.1229 45.4778 47.7093 46.8418 44.215 48.5103C42.3461 49.4026 40.903 50.3053 39.9234 51.1936C38.8746 52.1451 38.3434 53.094 38.3434 54.0138C38.3434 56.1927 39.2558 57.6984 41.2138 58.7521C43.4659 59.9638 47.126 60.6045 52.4035 60.7112C52.7334 60.7077 62.6751 60.5592 65.7014 56.9644C66.3969 56.1382 66.6472 55.2085 66.4666 54.1223C66.2379 52.7466 65.3827 51.7739 63.9245 51.2313C62.7576 50.7969 61.6313 50.8065 61.6201 50.8068H61.5927L61.5667 50.8052C61.541 50.8033 58.9109 50.6442 55.1895 51.2396C51.7704 51.7868 46.7006 53.1019 41.9637 56.2599C41.8914 56.3094 41.8099 56.3441 41.7241 56.3619C41.6383 56.3797 41.5497 56.3803 41.4636 56.3636C41.3776 56.347 41.2957 56.3134 41.2227 56.2649C41.1497 56.2163 41.087 56.1537 41.0384 56.0808C40.9897 56.0078 40.9561 55.926 40.9393 55.8399C40.9226 55.7539 40.9231 55.6653 40.9408 55.5795C40.9585 55.4936 40.9931 55.4121 41.0425 55.3397C41.092 55.2673 41.1553 55.2054 41.2288 55.1577C43.4159 53.6995 45.8502 52.4938 48.4639 51.5741C50.5507 50.8398 52.7563 50.285 55.0193 49.9253C58.725 49.3365 61.3284 49.464 61.6278 49.4817C61.8357 49.4817 63.0485 49.5001 64.3459 49.9742C66.2779 50.6801 67.4634 52.0393 67.7734 53.9047C68.0181 55.3767 67.6617 56.6928 66.7143 57.818C65.8891 58.7978 64.6046 59.6274 62.8965 60.2836C61.5728 60.7923 59.9845 61.2036 58.1758 61.504C55.1194 62.0128 52.5136 62.0347 52.4043 62.0354H52.3964Z" fill="#534741"/>
<path d="M63.2101 36.9426C63.9442 36.9426 64.5393 36.3475 64.5393 35.6134C64.5393 34.8793 63.9442 34.2842 63.2101 34.2842C62.476 34.2842 61.8809 34.8793 61.8809 35.6134C61.8809 36.3475 62.476 36.9426 63.2101 36.9426Z" fill="#534741"/>
<g clip-path="url(#clip0_389_1740)">
<path d="M80.0008 23.7998H24.8008V78.9998H80.0008V23.7998Z" fill="#FFDB63"/>
<path d="M40.3019 67.4773H40.2936C40.2066 67.4763 40.1206 67.4582 40.0406 67.424C39.9607 67.3898 39.8882 67.3402 39.8274 67.278C39.7666 67.2158 39.7186 67.1422 39.6862 67.0614C39.6539 66.9807 39.6377 66.8944 39.6387 66.8074C39.6586 65.0669 39.8455 63.8152 40.2838 62.4863C40.3101 62.4026 40.3528 62.3249 40.4094 62.2578C40.466 62.1907 40.5354 62.1355 40.6135 62.0955C40.6916 62.0554 40.7769 62.0313 40.8644 62.0245C40.9519 62.0176 41.0399 62.0283 41.1232 62.0558C41.2066 62.0833 41.2837 62.1271 41.35 62.1846C41.4162 62.2422 41.4704 62.3123 41.5094 62.391C41.5483 62.4696 41.5713 62.5552 41.5768 62.6428C41.5824 62.7304 41.5705 62.8183 41.5418 62.9012C41.1494 64.0917 40.9817 65.2277 40.9635 66.8225C40.9615 66.9967 40.891 67.1631 40.7671 67.2857C40.6433 67.4083 40.4761 67.4771 40.3019 67.4773Z" fill="#534741"/>
<path d="M50.7544 61.5935C48.0609 61.5935 45.7128 61.3035 43.754 60.7287C41.5837 60.0908 39.9319 59.1194 38.8447 57.8416C38.2467 57.1385 37.8362 56.3578 37.6244 55.521C37.422 54.7171 37.406 53.8819 37.5789 53.0386C38.0573 50.707 40.2285 48.6561 44.2143 46.769C47.4689 45.2285 51.3861 44.0521 54.5336 43.1074C55.6956 42.7578 56.7931 42.4288 57.6876 42.1307C59.7221 41.4525 61.1941 40.4041 61.9448 39.0986C62.5014 38.1308 62.4756 37.3414 62.4752 37.3335V37.341L63.9445 37.249C63.9517 37.3653 63.9945 38.4229 63.2802 39.7257C62.8662 40.4801 62.2793 41.1658 61.5356 41.762C60.6329 42.4857 59.4946 43.0794 58.1527 43.5267C57.2373 43.832 56.1287 44.1647 54.9566 44.5168C51.8564 45.4481 47.9981 46.6067 44.8438 48.0999C43.1694 48.8927 41.8343 49.7167 40.8773 50.5487C39.8394 51.4503 39.2147 52.3887 39.0206 53.3349C38.7564 54.6229 39.0831 55.8509 39.9654 56.8881C41.1062 58.2283 44.2342 60.4262 52.3694 60.0884H52.3954C52.4969 60.0884 62.6051 59.978 65.645 56.3675C66.3258 55.5589 66.5707 54.6486 66.3939 53.5851C66.17 52.2384 65.3318 51.2851 63.9025 50.7515C62.7691 50.3283 61.6723 50.3298 61.6226 50.3303C61.5161 50.3329 58.6063 50.4124 55.0012 51.1473C51.6693 51.8264 47.0411 53.2199 43.9128 56.0014C43.7669 56.1311 43.5754 56.1975 43.3806 56.1861C43.1857 56.1747 43.0033 56.0863 42.8736 55.9404C42.7439 55.7945 42.6775 55.6031 42.6889 55.4082C42.7004 55.2133 42.7887 55.031 42.9346 54.9012C44.4357 53.5667 46.3579 52.4187 48.6484 51.4892C50.4602 50.7531 52.508 50.1517 54.7345 49.6994C58.5143 48.9316 61.4702 48.8611 61.5943 48.8585H61.5972C61.6524 48.8585 62.9632 48.8401 64.371 49.3553C66.3297 50.0709 67.5312 51.4496 67.846 53.3429C68.0944 54.8367 67.7325 56.1732 66.7705 57.3157C65.9372 58.3051 64.6426 59.1419 62.9227 59.803C61.5946 60.3134 60.0015 60.7252 58.1879 61.0272C55.2052 61.524 52.6495 61.5574 52.4182 61.5595C51.8502 61.5814 51.2957 61.5928 50.7544 61.5935Z" fill="#534741"/>
<path d="M63.2111 38.6213C63.9452 38.6213 64.5403 38.0262 64.5403 37.2921C64.5403 36.558 63.9452 35.9629 63.2111 35.9629C62.4769 35.9629 61.8818 36.558 61.8818 37.2921C61.8818 38.0262 62.4769 38.6213 63.2111 38.6213Z" fill="#534741"/>
<g clip-path="url(#clip1_389_1740)">
<path d="M78.801 25H26.001V77.8H78.801V25Z" fill="#FFDB63"/>
<path d="M41.356 66.9695H41.3481C41.2649 66.9685 41.1827 66.9512 41.1062 66.9185C41.0297 66.8858 40.9604 66.8383 40.9022 66.7788C40.844 66.7193 40.7981 66.6489 40.7672 66.5717C40.7362 66.4944 40.7208 66.4119 40.7217 66.3286C40.7407 64.664 40.9195 63.4665 41.3388 62.1956C41.3639 62.1155 41.4048 62.0412 41.4589 61.9771C41.513 61.9129 41.5794 61.8601 41.6541 61.8218C41.7288 61.7835 41.8104 61.7604 41.8941 61.7539C41.9778 61.7473 42.062 61.7575 42.1417 61.7838C42.2214 61.8101 42.2952 61.852 42.3586 61.9071C42.422 61.9621 42.4738 62.0292 42.5111 62.1044C42.5483 62.1797 42.5702 62.2616 42.5756 62.3454C42.5809 62.4291 42.5695 62.5132 42.5421 62.5925C42.1667 63.7312 42.0063 64.8179 41.9889 66.3433C41.987 66.5099 41.9195 66.669 41.801 66.7863C41.6825 66.9035 41.5227 66.9693 41.356 66.9695Z" fill="#534741"/>
<path d="M50.8268 61.2733C48.2504 61.2733 46.0044 60.996 44.1307 60.4461C42.0548 59.8359 40.4748 58.9068 39.4349 57.6845C38.8629 57.012 38.4702 56.2653 38.2676 55.4648C38.074 54.6959 38.0587 53.897 38.2242 53.0904C38.6818 50.8601 40.7586 48.8984 44.5711 47.0934C47.6842 45.6199 51.431 44.4946 54.4417 43.591C55.5531 43.2566 56.603 42.9419 57.4585 42.6568C59.4045 42.008 60.8125 41.0052 61.5306 39.7565C62.063 38.8307 62.0384 38.0757 62.038 38.0681V38.0753L63.4434 37.9873C63.4502 38.0985 63.4912 39.1102 62.808 40.3563C62.412 41.0779 61.8506 41.7338 61.1392 42.3041C60.2757 42.9963 59.187 43.5642 57.9034 43.9921C57.0278 44.2841 55.9674 44.6023 54.8463 44.9391C51.8809 45.8299 48.1903 46.9381 45.1732 48.3664C43.5716 49.1248 42.2945 49.9129 41.3791 50.7088C40.3863 51.5712 39.7888 52.4688 39.6031 53.3738C39.3504 54.6058 39.663 55.7804 40.5069 56.7725C41.5981 58.0545 44.5901 60.1568 52.3716 59.8337H52.3962C52.4935 59.8337 62.1734 59.7281 65.0758 56.2726C65.7249 55.4998 65.9574 54.6304 65.7865 53.615C65.5552 52.2391 64.7401 51.2992 63.364 50.8218C62.2925 50.4499 61.2624 50.4993 61.252 50.5H61.2344C61.2027 50.5011 58.012 50.6232 54.4056 51.4634C51.1542 52.2202 46.8864 53.7284 45.019 56.613C44.9691 56.6914 44.9042 56.7591 44.828 56.8123C44.7518 56.8654 44.6658 56.903 44.5751 56.9227C44.4843 56.9425 44.3905 56.9441 44.2991 56.9275C44.2077 56.9109 44.1205 56.8763 44.0425 56.8258C43.9646 56.7753 43.8973 56.7099 43.8448 56.6333C43.7922 56.5567 43.7553 56.4705 43.7362 56.3796C43.7171 56.2886 43.7162 56.1949 43.7335 56.1036C43.7508 56.0123 43.7861 55.9254 43.8371 55.8478C44.7875 54.3784 46.3119 53.109 48.3655 52.0752C49.9671 51.2686 51.9002 50.5996 54.1097 50.0864C57.7962 49.2307 60.9658 49.1008 61.1767 49.0927C61.3095 49.086 62.5213 49.0383 63.8237 49.4903C64.6433 49.7747 65.3334 50.1975 65.875 50.7471C66.5595 51.442 66.9963 52.328 67.1733 53.3803C67.4134 54.8082 67.0695 56.0861 66.1515 57.1785C65.3556 58.1254 64.1176 58.9264 62.4719 59.5591C61.2011 60.0477 59.6764 60.4419 57.9404 60.7309C55.0851 61.2061 52.6382 61.239 52.4164 61.2413C51.8744 61.262 51.3445 61.2726 50.8268 61.2733Z" fill="#534741"/>
<path d="M62.7412 39.3007C63.4433 39.3007 64.0126 38.7314 64.0126 38.0292C64.0126 37.327 63.4433 36.7578 62.7412 36.7578C62.039 36.7578 61.4697 37.327 61.4697 38.0292C61.4697 38.7314 62.039 39.3007 62.7412 39.3007Z" fill="#534741"/>
</g>
</g>
</g>
<g clip-path="url(#clip2_389_1740)">
<path d="M74.1536 0H30.6472C21.3982 0 13.9004 7.49779 13.9004 16.7468V60.2532C13.9004 69.5022 21.3982 77 30.6472 77H74.1536C83.4026 77 90.9004 69.5022 90.9004 60.2532V16.7468C90.9004 7.49779 83.4026 0 74.1536 0Z" fill="#FFDB63"/>
<path d="M37.9622 56.8031C37.7526 56.8029 37.5504 56.7261 37.3934 56.5873C37.2364 56.4484 37.1355 56.2571 37.1096 56.0491C37.0987 55.9605 36.847 53.8385 37.4259 50.9624C37.4709 50.7389 37.6028 50.5425 37.7927 50.4162C37.9825 50.29 38.2147 50.2444 38.4382 50.2894C38.6617 50.3344 38.8582 50.4663 38.9844 50.6561C39.1106 50.846 39.1563 51.0782 39.1113 51.3017C38.5904 53.8866 38.8136 55.8204 38.8158 55.839C38.8305 55.9598 38.8194 56.0824 38.7832 56.1986C38.7471 56.3148 38.6866 56.422 38.606 56.5132C38.5253 56.6043 38.4262 56.6773 38.3152 56.7273C38.2042 56.7772 38.0839 56.8031 37.9622 56.8031Z" fill="#534741"/>
<path d="M50.9303 50.0076C50.5086 50.0076 50.0909 50.0017 49.6772 49.9901C47.0507 49.9167 44.6617 49.6223 42.5637 49.1145C40.2535 48.5542 38.3711 47.7466 36.967 46.7135C36.0869 46.0871 35.3501 45.2805 34.8056 44.3474C34.2702 43.3956 33.9925 42.3205 34.0002 41.2284C34.0002 39.6481 34.5145 38.1893 35.5323 36.8935C36.4078 35.7751 37.6434 34.7715 39.3112 33.8238C42.2989 32.1275 46.2233 30.8843 50.0187 29.6815C53.5327 28.5697 56.8509 27.5179 59.345 26.1719C61.9464 24.7678 63.1754 23.2936 63.2126 21.5338C63.2174 21.3094 63.3099 21.0958 63.4703 20.9388C63.6306 20.7817 63.8461 20.6936 64.0706 20.6934H64.0892C64.3169 20.698 64.5334 20.7928 64.6912 20.9569C64.849 21.1211 64.9352 21.3412 64.9308 21.5689C64.9034 22.8668 64.4252 24.0684 63.5081 25.142C62.7278 26.0569 61.6334 26.8931 60.1603 27.6832C57.524 29.1059 54.1303 30.1817 50.5374 31.3198C43.251 33.6257 35.7194 36.0104 35.7194 41.2273C35.7194 42.8689 36.4603 44.2062 37.9859 45.328C40.3706 47.079 44.5391 48.1285 49.7254 48.273C50.138 48.285 50.5538 48.2905 50.9708 48.2905C55.426 48.2905 60.0411 47.6338 63.8112 46.4639C66.9707 45.479 68.8323 42.9696 68.1395 40.6265C67.6831 39.0801 66.1915 37.9135 63.9393 37.3433C61.0293 36.6013 57.0173 36.9001 52.3388 38.2068C48.0543 39.403 44.7098 41.4374 42.4007 44.2544C42.3288 44.3416 42.2405 44.4138 42.1407 44.4669C42.0409 44.52 41.9317 44.553 41.8192 44.5638C41.7067 44.5747 41.5931 44.5633 41.485 44.5303C41.3769 44.4973 41.2764 44.4433 41.1892 44.3715C41.1019 44.2996 41.0297 44.2113 40.9766 44.1115C40.9235 44.0117 40.8906 43.9025 40.8797 43.79C40.8688 43.6775 40.8802 43.564 40.9132 43.4559C40.9462 43.3478 41.0002 43.2472 41.0721 43.16C43.61 40.0651 47.2444 37.8402 51.8758 36.5466C54.4684 35.8232 56.8772 35.391 59.0375 35.2618C61.0326 35.1425 62.8252 35.2815 64.3639 35.6733C65.8139 36.0432 67.0243 36.6309 67.9611 37.4243C68.8235 38.1312 69.4587 39.0762 69.7877 40.1417C70.0189 40.925 70.062 41.7517 69.9135 42.5548C69.7611 43.3787 69.4379 44.1616 68.9647 44.853C68.4523 45.6028 67.8087 46.2538 67.0648 46.7748C66.2268 47.362 65.3012 47.813 64.3223 48.111C62.0218 48.8075 59.6662 49.3069 57.281 49.6037C55.1748 49.8723 53.0536 50.0072 50.9303 50.0076Z" fill="#534741"/>
<path d="M64.0684 23.1037C64.9255 23.1037 65.6203 22.4089 65.6203 21.5518C65.6203 20.6948 64.9255 20 64.0684 20C63.2114 20 62.5166 20.6948 62.5166 21.5518C62.5166 22.4089 63.2114 23.1037 64.0684 23.1037Z" fill="#544943"/>
</g>
<defs>
<filter id="filter0_f_389_1740" x="0.800781" y="1" width="102" height="102" filterUnits="userSpaceOnUse" color-interpolation-filters="sRGB">
<feFlood flood-opacity="0" result="BackgroundImageFix"/>
<feBlend mode="normal" in="SourceGraphic" in2="BackgroundImageFix" result="shape"/>
<feGaussianBlur stdDeviation="9" result="effect1_foregroundBlur_389_1740"/>
</filter>
<clipPath id="clip0_389_1740">
<rect width="55.2" height="55.2" fill="white" transform="translate(24.8008 23.7998)"/>
</clipPath>
<clipPath id="clip1_389_1740">
<rect width="52.8" height="52.8" fill="white" transform="translate(26.001 25)"/>
</clipPath>
<clipPath id="clip2_389_1740">
<rect width="77" height="77" fill="white" transform="translate(13.9004)"/>
</clipPath>
</defs>
</svg>
