<svg width="78" height="77" viewBox="0 0 78 77" fill="none" xmlns="http://www.w3.org/2000/svg">
<g clip-path="url(#clip0_1109_7478)">
<path d="M61.1536 0H17.6472C8.39818 0 0.900391 7.49779 0.900391 16.7468V60.2532C0.900391 69.5022 8.39818 77 17.6472 77H61.1536C70.4026 77 77.9004 69.5022 77.9004 60.2532V16.7468C77.9004 7.49779 70.4026 0 61.1536 0Z" fill="#FFDB63"/>
<path d="M24.9622 56.8031C24.7526 56.8029 24.5504 56.7261 24.3934 56.5873C24.2364 56.4484 24.1355 56.2571 24.1096 56.0491C24.0987 55.9605 23.847 53.8385 24.4259 50.9624C24.4709 50.7389 24.6028 50.5425 24.7927 50.4162C24.9825 50.29 25.2147 50.2444 25.4382 50.2894C25.6617 50.3344 25.8582 50.4663 25.9844 50.6561C26.1106 50.846 26.1563 51.0782 26.1113 51.3017C25.5904 53.8866 25.8136 55.8204 25.8158 55.839C25.8305 55.9598 25.8194 56.0824 25.7832 56.1986C25.7471 56.3148 25.6866 56.422 25.606 56.5132C25.5253 56.6043 25.4262 56.6773 25.3152 56.7273C25.2042 56.7772 25.0839 56.8031 24.9622 56.8031Z" fill="#534741"/>
<path d="M37.9303 50.0076C37.5086 50.0076 37.0909 50.0017 36.6772 49.9901C34.0507 49.9167 31.6617 49.6223 29.5637 49.1145C27.2535 48.5542 25.3711 47.7466 23.967 46.7135C23.0869 46.0871 22.3501 45.2805 21.8056 44.3474C21.2702 43.3956 20.9925 42.3205 21.0002 41.2284C21.0002 39.6481 21.5145 38.1893 22.5323 36.8935C23.4078 35.7751 24.6434 34.7715 26.3112 33.8238C29.2989 32.1275 33.2233 30.8843 37.0187 29.6815C40.5327 28.5697 43.8509 27.5179 46.345 26.1719C48.9464 24.7678 50.1754 23.2936 50.2126 21.5338C50.2174 21.3094 50.3099 21.0958 50.4703 20.9388C50.6306 20.7817 50.8461 20.6936 51.0706 20.6934H51.0892C51.3169 20.698 51.5334 20.7928 51.6912 20.9569C51.849 21.1211 51.9352 21.3412 51.9308 21.5689C51.9034 22.8668 51.4252 24.0684 50.5081 25.142C49.7278 26.0569 48.6334 26.8931 47.1603 27.6832C44.524 29.1059 41.1303 30.1817 37.5374 31.3198C30.251 33.6257 22.7194 36.0104 22.7194 41.2273C22.7194 42.8689 23.4603 44.2062 24.9859 45.328C27.3706 47.079 31.5391 48.1285 36.7254 48.273C37.138 48.285 37.5538 48.2905 37.9708 48.2905C42.426 48.2905 47.0411 47.6338 50.8112 46.4639C53.9707 45.479 55.8323 42.9696 55.1395 40.6265C54.6831 39.0801 53.1915 37.9135 50.9393 37.3433C48.0293 36.6013 44.0173 36.9001 39.3388 38.2068C35.0543 39.403 31.7098 41.4374 29.4007 44.2544C29.3288 44.3416 29.2405 44.4138 29.1407 44.4669C29.0409 44.52 28.9317 44.553 28.8192 44.5638C28.7067 44.5747 28.5931 44.5633 28.485 44.5303C28.3769 44.4973 28.2764 44.4433 28.1892 44.3715C28.1019 44.2996 28.0297 44.2113 27.9766 44.1115C27.9235 44.0117 27.8906 43.9025 27.8797 43.79C27.8688 43.6775 27.8802 43.564 27.9132 43.4559C27.9462 43.3478 28.0002 43.2472 28.0721 43.16C30.61 40.0651 34.2444 37.8402 38.8758 36.5466C41.4684 35.8232 43.8772 35.391 46.0375 35.2618C48.0326 35.1425 49.8252 35.2815 51.3639 35.6733C52.8139 36.0432 54.0243 36.6309 54.9611 37.4243C55.8235 38.1312 56.4587 39.0762 56.7877 40.1417C57.0189 40.925 57.062 41.7517 56.9135 42.5548C56.7611 43.3787 56.4379 44.1616 55.9647 44.853C55.4523 45.6028 54.8087 46.2538 54.0648 46.7748C53.2268 47.362 52.3012 47.813 51.3223 48.111C49.0218 48.8075 46.6662 49.3069 44.281 49.6037C42.1748 49.8723 40.0536 50.0072 37.9303 50.0076Z" fill="#534741"/>
<path d="M51.0684 23.1037C51.9255 23.1037 52.6203 22.4089 52.6203 21.5518C52.6203 20.6948 51.9255 20 51.0684 20C50.2114 20 49.5166 20.6948 49.5166 21.5518C49.5166 22.4089 50.2114 23.1037 51.0684 23.1037Z" fill="#544943"/>
</g>
<defs>
<clipPath id="clip0_1109_7478">
<rect width="77" height="77" fill="white" transform="translate(0.900391)"/>
</clipPath>
</defs>
</svg>
