<svg xmlns="http://www.w3.org/2000/svg" viewBox="0 0 960.81 337.7"><defs><style>.cls-1{fill:#534741;}</style></defs><g id="Layer_2" data-name="Layer 2"><g id="Layer_2-2" data-name="Layer 2"><path class="cls-1" d="M854.91,335.73a36.39,36.39,0,0,1-6-.51c-17.84-3.22-28-16-26.54-33.35,2.15-26.16,31.81-62.69,76.79-80.1a560,560,0,0,0,6.93-57.21,10.23,10.23,0,0,1,20.43,1.26c-.07,1.08-1.41,22.3-5.59,49.38a148.56,148.56,0,0,1,29.54-3.42h.16a10.23,10.23,0,0,1,.14,20.46,126.66,126.66,0,0,0-33.7,5.08c-9.15,46.39-22.34,76.68-39.21,90.05A36.5,36.5,0,0,1,854.91,335.73Zm39.27-89.29c-30.85,15.85-50.16,41.34-51.46,57.11-.56,6.83,2.24,10.17,9.69,11.51,4.46.76,8.53-.41,12.7-3.72C878.22,301,887.66,274.7,894.18,246.44Z"/><path class="cls-1" d="M802.58,262.13a10.19,10.19,0,0,1-4.07,16.11c-6.9,2.64-16.84,5.06-30.14,5.06s-24.84-4-33.86-11.78c-10.8,7.35-24.26,11.78-40.5,11.78-17,0-31.32-6.87-41.33-19.57-12,12.44-27,19.26-42.78,19.37h-.16c-20-.16-35.58-9.59-43.74-26.53a62.18,62.18,0,0,1-6-24.93,10.23,10.23,0,0,1,20.46,0,42.84,42.84,0,0,0,4.18,16.56c4.82,9.6,13,14.32,25.15,14.44,15.58-.14,26.41-10.3,32.55-18.34-5.75-17.19-5.4-36.94,1.61-46.94,3.67-5.24,9.1-7.81,14.88-7.05,8.49,1.12,17.18,8.45,16.11,25.67-.59,9.53-4,20.32-9.5,30.22,6.27,11,15.85,16.64,28.52,16.64,11.59,0,20.72-2.89,27.91-7.44-13.72-26.23-10.42-66,1.47-86.23,7-11.88,15.23-14.25,20.85-14.21,15.09.2,24.74,17.5,24.56,44.08-.13,20.72-6.33,42.25-19.15,58.35q7.65,5.43,18.72,5.45c10.67,0,18.1-1.86,22.77-3.63a10.22,10.22,0,0,1,11.44,2.92ZM743.7,176c-1.94,1.83-5.47,7.36-7.92,17.63a89.75,89.75,0,0,0-.74,37.84,65.54,65.54,0,0,0,2.23,8.18,70.39,70.39,0,0,0,7.22-16C751.46,201.39,747.58,180.9,743.7,176Z"/><path class="cls-1" d="M533.19,282.77a38.5,38.5,0,0,1-5.7-.42c-9.89-1.45-18.84-8.21-25.2-19.05-11.13-18.94-13.11-47.41-4.82-69.23,9.83-25.89,25.72-39.9,44.69-39.33h0c11.43.32,21.26,5.69,28.44,15.53,11.48,15.77,14.87,42.7,8.23,65.5C567.37,275.13,547.15,282.77,533.19,282.77Zm8-107.58c-13.22,0-21.59,18.24-24.59,26.14-7,18.32-3.59,39.83,3.33,51.61,3.16,5.38,6.9,8.64,10.52,9.17,15.37,2.26,24.11-16.19,28.73-32.06,4.83-16.58,2.63-37.09-5.12-47.73-3.39-4.65-7.47-7-12.47-7.12Z"/><path class="cls-1" d="M457.26,283.06a54,54,0,0,1-5.84-.32c-24.51-2.71-41.07-20.35-39.38-42a10.23,10.23,0,1,1,20.4,1.59c-.94,12,10.34,18.82,21.23,20,15.22,1.68,34.44-6.63,38.56-35.56a10.23,10.23,0,0,1,20.26,2.89C507.16,267.08,481.2,283.06,457.26,283.06Z"/><path class="cls-1" d="M384.43,274.06a40.71,40.71,0,0,1-12-1.78c-12.32-3.85-21.1-13.71-25.38-28.51-3.47-12-3.81-26.73-1-42.65h0c4.78-27.1,16.67-40.06,25.8-46.16a43,43,0,0,1,33-6.36c18.91,4.18,38.18,26.87,30.23,77-2.88,18.14-11.9,32.74-25.41,41.13A48.18,48.18,0,0,1,384.43,274.06Zm11.38-106A22.51,22.51,0,0,0,383.18,172c-8.34,5.57-14.23,16.88-17,32.71h0c-3.57,20.18-1.23,43.83,12.32,48.06,4.78,1.5,12.64,1.38,20.34-3.4,5.93-3.68,13.52-11.34,16-26.94,5.33-33.61-3.75-51.46-14.45-53.83A21.44,21.44,0,0,0,395.81,168.1Zm-39.73,34.8h0Z"/><path class="cls-1" d="M690,90.92a8.54,8.54,0,0,1-1,0,10.22,10.22,0,0,1-9.19-11.17c1.53-15.72,5.31-27.72,10-36.86a57,57,0,0,1-3.3-23.32,10.23,10.23,0,1,1,20.43,1.24c0,.39,0,.77-.06,1.15a47.2,47.2,0,0,1,10.4-6.06c13-5.36,27-3.75,36.63,4.19,9,7.43,12.68,19,10.09,31.64-3.39,16.63-17.45,26.26-35,23.94A47.37,47.37,0,0,1,703.6,63.46a96.78,96.78,0,0,0-3.46,18.22A10.24,10.24,0,0,1,690,90.92Zm23.37-47c5.08,6.8,12.27,10.63,18.3,11.42,6.92.92,11.05-1.69,12.28-7.74.74-3.61.8-8.58-3.07-11.77s-9.82-3.52-15.78-1A29.79,29.79,0,0,0,713.34,43.91Z"/><path class="cls-1" d="M162.72,337.7C73,337.7,0,268.36,0,183.14,0,106.81,58.55,43.22,135.23,30.78a153.88,153.88,0,0,1,.16-21.31A10.23,10.23,0,0,1,155.8,11a129,129,0,0,0-.15,17.73q3.51-.13,7.07-.14c4.26,0,42.09.59,56.37,20.62,4.12,5.79,8,15.63,3.17,29.68-5.37,15.59-21.88,23.85-40.15,20.09-14.09-2.9-26.51-12.32-35-26.52A81,81,0,0,1,138.38,51C71.5,61.91,20.46,117,20.46,183.14c0,73.94,63.82,134.09,142.26,134.09S305,257.08,305,183.14a10.23,10.23,0,0,1,20.46,0C325.43,268.36,252.44,337.7,162.72,337.7ZM159.19,49.08c5.43,17.69,16,27.57,27,29.85,7.91,1.63,14.77-1.14,16.69-6.72,2.17-6.3.76-9.37-.49-11.12-6.42-9-29.54-12-39.73-12.05C161.53,49,160.36,49.05,159.19,49.08Z"/><path class="cls-1" d="M356.69,336.46a72.18,72.18,0,0,1-11-.87,10.23,10.23,0,0,1,3.12-20.22c12.75,2,23.44-.69,32.7-8.12,28.94-23.23,33.17-83.3,33.21-83.91a10.23,10.23,0,0,1,20.42,1.31c-.18,2.83-4.82,69.61-40.79,98.52A58.6,58.6,0,0,1,356.69,336.46Z"/></g></g></svg>